<svg xmlns="http://www.w3.org/2000/svg" xmlns:xlink="http://www.w3.org/1999/xlink" width="202.46" height="31.999" viewBox="0 0 202.46 31.999"><defs><linearGradient id="a" x1="0.008" y1="0.345" x2="1" y2="0.364" gradientUnits="objectBoundingBox"><stop offset="0" stop-color="#ec3a87"/><stop offset="1" stop-color="#ff1c5a"/></linearGradient><linearGradient id="b" x1="1" y1="0.4" x2="0" y2="0.442" xlink:href="#a"/></defs><g transform="translate(-199 -58)"><path d="M11.36,32H0V0H11.386a5.592,5.592,0,0,0,4.263,1.969A5.6,5.6,0,0,0,19.913,0H64V32H19.938a5.6,5.6,0,0,0-8.577,0ZM14.88,26.04v1.6h1.28v-1.6Zm0-3v1.6h1.28v-1.6ZM44.519,16.32a3.04,3.04,0,1,0,3.04,3.04A3.043,3.043,0,0,0,44.519,16.32Zm2.42-6.247a.8.8,0,0,0-.514.188l-12.747,10.7a.8.8,0,0,0,1.028,1.226l12.747-10.7a.8.8,0,0,0-.514-1.413ZM14.88,19.84v1.6h1.28v-1.6Zm0-3.2v1.6h1.28v-1.6ZM36.519,9.28a3.04,3.04,0,1,0,3.04,3.04A3.044,3.044,0,0,0,36.519,9.28ZM14.88,13.44v1.6h1.28v-1.6Zm0-3.2v1.6h1.28v-1.6Zm0-3.2v1.6h1.28V7.04Zm0-3.04V5.6h1.28V4ZM44.519,20.8a1.44,1.44,0,1,1,1.44-1.44A1.442,1.442,0,0,1,44.519,20.8Zm-8-7.04a1.44,1.44,0,1,1,1.44-1.44A1.442,1.442,0,0,1,36.519,13.76Z" transform="translate(199 58)" fill="url(#a)"/><path d="M18.84-14.24H22.4L17.3,0H14.32L11.34-8.46,8.3,0H5.32L.24-14.24H4.06L6.98-5.26l3.18-8.98h2.56L15.78-5.1Zm6.08,0H31.7a5.566,5.566,0,0,1,3.78,1.17A3.993,3.993,0,0,1,36.82-9.9a3.973,3.973,0,0,1-1.36,3.16A5.549,5.549,0,0,1,31.7-5.56H28.68V0H24.92ZM31.2-8.36q2.12,0,2.12-1.5a1.358,1.358,0,0,0-.51-1.15,2.661,2.661,0,0,0-1.61-.39H28.68v3.04ZM53.2.18a7.77,7.77,0,0,1-3.8-.89,6.045,6.045,0,0,1-2.49-2.55,8.244,8.244,0,0,1-.87-3.88A8.048,8.048,0,0,1,46.92-11a6.152,6.152,0,0,1,2.49-2.53,7.713,7.713,0,0,1,3.79-.89,7.713,7.713,0,0,1,3.79.89A6.026,6.026,0,0,1,59.46-11a8.2,8.2,0,0,1,.86,3.86,8.323,8.323,0,0,1-.86,3.88A6,6,0,0,1,56.99-.71,7.712,7.712,0,0,1,53.2.18Zm0-2.86a3.035,3.035,0,0,0,2.51-1.14,5.225,5.225,0,0,0,.91-3.32,5.145,5.145,0,0,0-.91-3.29,3.046,3.046,0,0,0-2.51-1.13,3.029,3.029,0,0,0-2.5,1.12,5.179,5.179,0,0,0-.9,3.3,5.26,5.26,0,0,0,.9,3.33A3.018,3.018,0,0,0,53.2-2.68ZM63.52,0V-14.24h9.94v2.94H67.22v2.6h5.84v2.92H67.22V0ZM76.2,0V-14.24h9.94v2.94H79.9v2.6h5.84v2.92H79.9V0ZM88.88,0V-14.24H99.04v2.88h-6.5v2.68h6.08V-5.8H92.54v2.92h6.5V0Zm25.46,0h-3.98l-1.84-4.74a1.427,1.427,0,0,0-1.5-.8h-1.36V0h-3.7V-14.24h6.62a5.844,5.844,0,0,1,3.88,1.11,3.939,3.939,0,0,1,1.3,3.17,4.1,4.1,0,0,1-.77,2.49,4.134,4.134,0,0,1-2.17,1.49,2.223,2.223,0,0,1,1.08.56,3.013,3.013,0,0,1,.76,1.18Zm-6.36-8.34a3.154,3.154,0,0,0,1.74-.37,1.3,1.3,0,0,0,.54-1.15,1.322,1.322,0,0,0-.53-1.18,3.219,3.219,0,0,0-1.75-.36h-2.36v3.06ZM122.28.18a12.1,12.1,0,0,1-3.16-.42,7.606,7.606,0,0,1-2.54-1.14l1.18-2.66a8.828,8.828,0,0,0,2.21,1.01,8.162,8.162,0,0,0,2.35.35,4.107,4.107,0,0,0,1.84-.33,1.019,1.019,0,0,0,.64-.93,1.026,1.026,0,0,0-.58-.89,7.911,7.911,0,0,0-2.18-.69,11.876,11.876,0,0,1-3.14-.99,3.7,3.7,0,0,1-1.57-1.39,3.9,3.9,0,0,1-.45-1.94,3.984,3.984,0,0,1,.74-2.35,4.874,4.874,0,0,1,2.08-1.64,7.525,7.525,0,0,1,3.06-.59,10.461,10.461,0,0,1,2.99.43,6.173,6.173,0,0,1,2.27,1.13l-1.16,2.66a7.721,7.721,0,0,0-1.98-1.01,6.487,6.487,0,0,0-2.08-.35,3.047,3.047,0,0,0-1.64.39,1.191,1.191,0,0,0-.62,1.05.854.854,0,0,0,.22.6,2.219,2.219,0,0,0,.82.47,13.208,13.208,0,0,0,1.8.49,12.116,12.116,0,0,1,3.05,1.01A3.817,3.817,0,0,1,128-6.17a3.693,3.693,0,0,1,.46,1.89,3.836,3.836,0,0,1-1.62,3.27A7.588,7.588,0,0,1,122.28.18Z" transform="translate(273 81.42)" fill="url(#b)"/></g></svg>