<svg xmlns="http://www.w3.org/2000/svg" xmlns:xlink="http://www.w3.org/1999/xlink" width="470" height="300" viewBox="0 0 470 300"><defs><linearGradient id="a" x1="0.008" y1="0.345" x2="1" y2="0.364" gradientUnits="objectBoundingBox"><stop offset="0" stop-color="#ec3a87"/><stop offset="1" stop-color="#ff1c5a"/></linearGradient><linearGradient id="b" x1="1" y1="0.4" x2="0" y2="0.442" xlink:href="#a"/></defs><g transform="translate(-30 -30)"><rect width="470" height="300" transform="translate(30 30)" fill="#1f3750"/><g transform="translate(184.5 241.001)"><path d="M5.68,16H0V0H5.693A2.8,2.8,0,0,0,7.824.984,2.8,2.8,0,0,0,9.957,0H32V16H9.969A2.8,2.8,0,0,0,5.68,16Zm1.76-2.98v.8h.64v-.8Zm0-1.5v.8h.64v-.8ZM22.259,8.16a1.52,1.52,0,1,0,1.52,1.52,1.52,1.52,0,0,0-1.52-1.52Zm1.21-3.123a.4.4,0,0,0-.257.094l-6.373,5.35a.4.4,0,1,0,.514.613l6.373-5.35a.4.4,0,0,0-.257-.706ZM7.44,9.92v.8h.64v-.8Zm0-1.6v.8h.64v-.8ZM18.259,4.64a1.52,1.52,0,1,0,1.52,1.52,1.52,1.52,0,0,0-1.52-1.52ZM7.44,6.72v.8h.64v-.8Zm0-1.6v.8h.64v-.8Zm0-1.6v.8h.64v-.8ZM7.44,2v.8h.64V2Zm14.819,8.4a.72.72,0,1,1,.72-.72A.72.72,0,0,1,22.259,10.4Zm-4-3.52a.72.72,0,1,1,.72-.72A.72.72,0,0,1,18.259,6.88Z" transform="translate(199 58)" fill="url(#a)"/><path d="M9.54-14.331h1.78L8.77-7.211H7.28l-1.49-4.23L4.27-7.211H2.78L.24-14.331H2.15l1.46,4.49,1.59-4.49H6.48l1.53,4.57Zm3.04,0h3.39a2.783,2.783,0,0,1,1.89.585,2,2,0,0,1,.67,1.585,1.986,1.986,0,0,1-.68,1.58,2.774,2.774,0,0,1-1.88.59H14.46v2.78H12.58Zm3.14,2.94q1.06,0,1.06-.75a.679.679,0,0,0-.255-.575,1.33,1.33,0,0,0-.8-.195H14.46v1.52Zm11,4.27a3.885,3.885,0,0,1-1.9-.445,3.022,3.022,0,0,1-1.245-1.275,4.122,4.122,0,0,1-.435-1.94,4.024,4.024,0,0,1,.44-1.93,3.076,3.076,0,0,1,1.245-1.265,3.856,3.856,0,0,1,1.895-.445,3.856,3.856,0,0,1,1.895.445,3.013,3.013,0,0,1,1.235,1.265,4.1,4.1,0,0,1,.43,1.93,4.161,4.161,0,0,1-.43,1.94,3,3,0,0,1-1.235,1.275,3.856,3.856,0,0,1-1.895.445Zm0-1.43a1.517,1.517,0,0,0,1.255-.57,2.612,2.612,0,0,0,.455-1.66,2.572,2.572,0,0,0-.455-1.645,1.523,1.523,0,0,0-1.255-.565,1.514,1.514,0,0,0-1.25.56,2.589,2.589,0,0,0-.45,1.65,2.63,2.63,0,0,0,.45,1.665,1.509,1.509,0,0,0,1.25.565Zm5.16,1.34v-7.12h4.97v1.47h-3.12v1.3h2.92v1.46h-2.92v2.89Zm6.34,0v-7.12h4.97v1.47h-3.12v1.3h2.92v1.46h-2.92v2.89Zm6.34,0v-7.12h5.08v1.44h-3.25v1.34h3.04v1.44h-3.04v1.46h3.25v1.44Zm12.73,0H55.3l-.92-2.37a.713.713,0,0,0-.75-.4h-.68v2.77H51.1v-7.12h3.31a2.922,2.922,0,0,1,1.94.555A1.969,1.969,0,0,1,57-12.191a2.05,2.05,0,0,1-.385,1.245,2.067,2.067,0,0,1-1.085.745,1.111,1.111,0,0,1,.54.28,1.506,1.506,0,0,1,.38.59Zm-3.18-4.17a1.577,1.577,0,0,0,.87-.185.65.65,0,0,0,.27-.575.661.661,0,0,0-.265-.59,1.609,1.609,0,0,0-.875-.18h-1.18v1.53Zm7.15,4.26a6.05,6.05,0,0,1-1.58-.21,3.8,3.8,0,0,1-1.27-.57L59-9.231a4.414,4.414,0,0,0,1.1.5,4.081,4.081,0,0,0,1.175.175,2.053,2.053,0,0,0,.92-.165.509.509,0,0,0,.32-.465.513.513,0,0,0-.29-.445,3.955,3.955,0,0,0-1.09-.345,5.938,5.938,0,0,1-1.57-.495,1.85,1.85,0,0,1-.785-.695,1.95,1.95,0,0,1-.225-.97,1.992,1.992,0,0,1,.37-1.175,2.437,2.437,0,0,1,1.04-.82,3.762,3.762,0,0,1,1.53-.295,5.23,5.23,0,0,1,1.495.215,3.086,3.086,0,0,1,1.135.565l-.58,1.33a3.86,3.86,0,0,0-.99-.5,3.244,3.244,0,0,0-1.04-.175,1.523,1.523,0,0,0-.82.195.6.6,0,0,0-.31.525.427.427,0,0,0,.11.3,1.11,1.11,0,0,0,.41.235,6.6,6.6,0,0,0,.9.245,6.058,6.058,0,0,1,1.525.5,1.909,1.909,0,0,1,.785.69,1.846,1.846,0,0,1,.23.945,1.918,1.918,0,0,1-.81,1.635,3.794,3.794,0,0,1-2.28.595Z" transform="translate(235.879 76.921)" fill="url(#b)"/></g><path d="M-138.545-11.562V0h-2.227V-28.437h8.262a7.829,7.829,0,0,1,5.938,2.266,8.64,8.64,0,0,1,2.168,6.23,8.569,8.569,0,0,1-2.1,6.211,8.031,8.031,0,0,1-6.045,2.168Zm0-2.09h6.035a5.675,5.675,0,0,0,4.346-1.631,6.486,6.486,0,0,0,1.533-4.619,6.763,6.763,0,0,0-1.553-4.707,5.508,5.508,0,0,0-4.307-1.719h-6.055ZM-117.256,0h-2.187V-30h2.188Zm17.168,0a13.726,13.726,0,0,1-.391-2.93,6.956,6.956,0,0,1-2.51,2.451,6.639,6.639,0,0,1-3.33.869,5.714,5.714,0,0,1-4.258-1.543A5.99,5.99,0,0,1-112.1-5.547a6.147,6.147,0,0,1,2.119-4.922,8.776,8.776,0,0,1,5.85-1.836h3.633v-2.949a4.131,4.131,0,0,0-1.123-3.252,4.848,4.848,0,0,0-3.291-.986,4.718,4.718,0,0,0-3.3,1.172,3.9,3.9,0,0,0-1.289,3.027l-2.168-.02a5.774,5.774,0,0,1,1.953-4.4,6.941,6.941,0,0,1,4.9-1.807,6.637,6.637,0,0,1,4.824,1.6,6.234,6.234,0,0,1,1.641,4.668V-4.883a14.328,14.328,0,0,0,.566,4.648V0Zm-5.957-1.7a5.911,5.911,0,0,0,3.389-1A5.8,5.8,0,0,0-100.5-5.352v-5.137h-3.437a6.9,6.9,0,0,0-4.473,1.318,4.293,4.293,0,0,0-1.5,3.447Q-109.912-1.7-106.045-1.7Zm20.293.059a4.588,4.588,0,0,0,3.477-1.264,5.393,5.393,0,0,0,1.309-3.638h2.09a7.25,7.25,0,0,1-2.07,5.088,6.645,6.645,0,0,1-4.8,1.846,6.846,6.846,0,0,1-5.693-2.412q-1.924-2.412-1.963-7.158v-2.578q0-4.844,1.924-7.3a6.807,6.807,0,0,1,5.713-2.461,6.4,6.4,0,0,1,4.961,1.982A8.321,8.321,0,0,1-78.877-14h-2.09a6.428,6.428,0,0,0-1.328-4.053,4.33,4.33,0,0,0-3.477-1.436A4.684,4.684,0,0,0-89.9-17.6q-1.318,1.892-1.318,5.814v2.4q0,4.058,1.328,5.9A4.758,4.758,0,0,0-85.752-1.641ZM-67.314.391a7.309,7.309,0,0,1-5.84-2.441Q-75.264-4.492-75.3-9v-2.578a11.718,11.718,0,0,1,2.031-7.295,6.654,6.654,0,0,1,5.586-2.646,6.335,6.335,0,0,1,5.244,2.246q1.807,2.246,1.846,6.875v2.031H-73.154V-9.18A8.878,8.878,0,0,0-71.6-3.574,5.258,5.258,0,0,0-67.217-1.6a6.308,6.308,0,0,0,5.059-2.285l1.133,1.445A7.279,7.279,0,0,1-67.314.391Zm-.371-19.883a4.653,4.653,0,0,0-3.936,1.807A9.231,9.231,0,0,0-73.135-12.4h10.371v-.566Q-62.92-19.492-67.686-19.492Zm13.867,1.68a7.884,7.884,0,0,1,2.373-2.705,5.593,5.593,0,0,1,3.291-1.006q5.527,0,5.664,7.363V0h-2.148V-13.926a7.259,7.259,0,0,0-1-4.18A3.531,3.531,0,0,0-48.7-19.453a4.345,4.345,0,0,0-3.057,1.279,8.023,8.023,0,0,0-2.061,3.506V0h-2.168V-30h2.168Zm16.25,6.172a11.463,11.463,0,0,1,2.07-7.227,6.771,6.771,0,0,1,5.645-2.656A6.8,6.8,0,0,1-24.2-18.906a11.448,11.448,0,0,1,2.08,7.207v2.246q0,4.648-2.08,7.246a6.816,6.816,0,0,1-5.615,2.6A6.852,6.852,0,0,1-35.42-2.148a11.081,11.081,0,0,1-2.148-6.992Zm2.188,2.177a9.794,9.794,0,0,0,1.475,5.736,4.732,4.732,0,0,0,4.092,2.088,4.7,4.7,0,0,0,4.092-2.01,10.01,10.01,0,0,0,1.436-5.755v-2.244a9.792,9.792,0,0,0-1.484-5.746,4.732,4.732,0,0,0-4.082-2.1,4.693,4.693,0,0,0-4,2.048,9.632,9.632,0,0,0-1.523,5.638ZM-14.7,0h-2.187V-30H-14.7Zm5.215-11.543q0-4.961,1.738-7.471a5.864,5.864,0,0,1,5.156-2.51A5.767,5.767,0,0,1,2.783-18.3V-30H4.951V0H2.92l-.1-2.715A5.847,5.847,0,0,1-2.607.391,5.79,5.79,0,0,1-7.7-2.148Q-9.443-4.687-9.482-9.355ZM-7.275-9.57q0,4.063,1.221,5.977A4.26,4.26,0,0,0-2.178-1.68,5.161,5.161,0,0,0,2.783-4.941V-15.9a5.064,5.064,0,0,0-4.941-3.535,4.273,4.273,0,0,0-3.877,1.895,11.146,11.146,0,0,0-1.24,5.859ZM17.783.391a7.309,7.309,0,0,1-5.84-2.441Q9.834-4.492,9.795-9v-2.578a11.718,11.718,0,0,1,2.031-7.295,6.654,6.654,0,0,1,5.586-2.646,6.335,6.335,0,0,1,5.244,2.246Q24.463-17.031,24.5-12.4v2.031H11.943V-9.18A8.878,8.878,0,0,0,13.5-3.574,5.258,5.258,0,0,0,17.881-1.6a6.308,6.308,0,0,0,5.059-2.285l1.133,1.445A7.279,7.279,0,0,1,17.783.391Zm-.371-19.883a4.653,4.653,0,0,0-3.936,1.807A9.231,9.231,0,0,0,11.963-12.4H22.334v-.566Q22.178-19.492,17.412-19.492Zm19.98.391a8.064,8.064,0,0,0-1.367-.137,4.082,4.082,0,0,0-3.018,1.23,6.969,6.969,0,0,0-1.729,3.418V0H29.111V-21.133H31.24l.039,3.164q1.543-3.555,4.844-3.555a2.708,2.708,0,0,1,1.309.254ZM53.291,0H51.064V-28.437h2.227Zm8.652-21.133L62-17.969a6.183,6.183,0,0,1,5.664-3.555,5.035,5.035,0,0,1,5.273,3.887,7.192,7.192,0,0,1,2.568-2.91,6.374,6.374,0,0,1,3.428-.977q5.7,0,5.84,7.344V0H82.607V-14.043a7.094,7.094,0,0,0-1.016-4.072,3.7,3.7,0,0,0-3.2-1.338,4.547,4.547,0,0,0-3.4,1.563,6.3,6.3,0,0,0-1.582,3.828V0H71.221V-13.984A6.786,6.786,0,0,0,70.2-18.105,3.755,3.755,0,0,0,67-19.453a4.322,4.322,0,0,0-3.076,1.23,7.165,7.165,0,0,0-1.885,3.516V0H59.873V-21.133ZM101.611,0a13.726,13.726,0,0,1-.391-2.93,6.956,6.956,0,0,1-2.51,2.451,6.639,6.639,0,0,1-3.33.869,5.714,5.714,0,0,1-4.258-1.543A5.99,5.99,0,0,1,89.6-5.547a6.147,6.147,0,0,1,2.119-4.922,8.776,8.776,0,0,1,5.85-1.836H101.2v-2.949a4.131,4.131,0,0,0-1.123-3.252,4.848,4.848,0,0,0-3.291-.986,4.718,4.718,0,0,0-3.3,1.172A3.9,3.9,0,0,0,92.2-15.293l-2.168-.02a5.774,5.774,0,0,1,1.953-4.4,6.941,6.941,0,0,1,4.9-1.807,6.637,6.637,0,0,1,4.824,1.6,6.234,6.234,0,0,1,1.641,4.668V-4.883a14.328,14.328,0,0,0,.566,4.648V0ZM95.654-1.7a5.911,5.911,0,0,0,3.389-1A5.8,5.8,0,0,0,101.2-5.352v-5.137H97.764A6.9,6.9,0,0,0,93.291-9.17a4.293,4.293,0,0,0-1.5,3.447Q91.787-1.7,95.654-1.7Zm12.852-9.844q0-5,1.719-7.49a5.849,5.849,0,0,1,5.156-2.49,5.787,5.787,0,0,1,5.43,3.34l.117-2.949h2.012V.605a8.457,8.457,0,0,1-1.826,5.82,6.744,6.744,0,0,1-5.264,1.992,7.978,7.978,0,0,1-3.506-.858,7.152,7.152,0,0,1-2.686-2.091l1.016-1.562a6.509,6.509,0,0,0,5.02,2.48,4.793,4.793,0,0,0,3.838-1.4A6.5,6.5,0,0,0,120.752.721V-2.637A5.843,5.843,0,0,1,115.361.391a5.8,5.8,0,0,1-5.049-2.48q-1.748-2.48-1.807-7.168Zm2.188,1.973q0,4.063,1.23,5.977a4.264,4.264,0,0,0,3.867,1.914,5.044,5.044,0,0,0,4.961-3.34v-10.8q-1.465-3.613-4.922-3.613a4.3,4.3,0,0,0-3.887,1.895,11.072,11.072,0,0,0-1.25,5.859Zm25,9.961a7.309,7.309,0,0,1-5.84-2.441Q127.744-4.492,127.705-9v-2.578a11.718,11.718,0,0,1,2.031-7.295,6.654,6.654,0,0,1,5.586-2.646,6.335,6.335,0,0,1,5.244,2.246q1.807,2.246,1.846,6.875v2.031H129.854V-9.18a8.878,8.878,0,0,0,1.553,5.605A5.258,5.258,0,0,0,135.791-1.6a6.308,6.308,0,0,0,5.059-2.285l1.133,1.445A7.279,7.279,0,0,1,135.693.391Zm-.371-19.883a4.653,4.653,0,0,0-3.936,1.807,9.231,9.231,0,0,0-1.514,5.283h10.371v-.566Q140.088-19.492,135.322-19.492Z" transform="translate(265 194)" fill="#fff" opacity="0.5"/></g></svg>